<?xml version="1.0" standalone="no"?>
<!DOCTYPE svg PUBLIC "-//W3C//DTD SVG 20010904//EN"
 "http://www.w3.org/TR/2001/REC-SVG-20010904/DTD/svg10.dtd">
<svg version="1.0" xmlns="http://www.w3.org/2000/svg"
 width="1024.000000pt" height="1024.000000pt" viewBox="0 0 1024.000000 1024.000000"
 preserveAspectRatio="xMidYMid meet">

<g transform="translate(0.000000,1024.000000) scale(0.100000,-0.100000)"
fill="#000000" stroke="none">
<path d="M0 5120 l0 -5120 5120 0 5120 0 0 5120 0 5120 -5120 0 -5120 0 0
-5120z m5750 2905 c122 -8 347 -48 453 -81 494 -155 832 -415 1029 -791 183
-350 251 -811 176 -1201 -12 -63 -13 -65 -113 -161 -395 -377 -1102 -793
-1895 -1114 l-175 -71 -375 -6 c-476 -7 -460 -1 -460 -174 l0 -95 -37 -10
c-274 -73 -752 -150 -1034 -167 -101 -6 -107 -5 -133 18 l-27 23 1 1890 c1
2081 -4 1925 63 1943 35 9 2372 6 2527 -3z m2017 -990 c188 -30 330 -97 429
-201 118 -123 164 -234 164 -392 0 -111 -20 -185 -85 -317 -71 -142 -151 -253
-311 -427 -427 -467 -1164 -960 -1969 -1318 -462 -206 -948 -386 -1365 -505
-123 -36 -203 -64 -217 -77 -22 -21 -22 -22 -25 -472 -2 -248 -7 -459 -12
-469 -22 -46 -32 -47 -603 -47 -296 0 -548 3 -560 6 -52 14 -54 30 -59 392 -3
185 -7 352 -10 369 -3 19 -13 37 -25 43 -11 6 -94 22 -185 35 -401 58 -587
117 -761 241 -71 51 -121 107 -176 197 -131 215 -98 452 102 737 195 278 544
607 775 730 92 49 97 43 108 -137 l9 -138 -28 -22 c-15 -12 -80 -62 -143 -110
-150 -115 -327 -291 -426 -425 -156 -209 -196 -338 -140 -451 64 -132 237
-234 476 -281 190 -37 238 -41 495 -40 287 0 403 13 750 80 768 150 1734 506
2445 902 557 310 926 575 1245 896 255 256 373 436 383 581 2 42 0 87 -7 108
-15 46 -89 130 -108 123 -8 -3 -11 -2 -8 4 17 27 -172 80 -286 80 l-78 0 -11
43 c-13 46 -54 193 -69 245 l-10 32 102 0 c56 0 143 -7 194 -15z m-3493 -4401
c9 -8 16 -21 16 -28 0 -7 -31 -55 -68 -107 -38 -52 -128 -177 -201 -279 -152
-211 -183 -247 -222 -255 -56 -12 -80 13 -300 322 -116 163 -214 304 -216 313
-3 9 3 24 12 34 15 14 63 16 490 16 417 0 475 -2 489 -16z"/>
<path d="M4444 7033 c-57 -12 -54 22 -52 -738 l3 -698 28 -21 c28 -21 39 -21
480 -24 484 -3 627 6 791 48 244 62 412 213 481 433 90 284 30 614 -146 797
-87 91 -191 143 -364 183 -84 19 -126 20 -645 23 -305 1 -565 0 -576 -3z"/>
</g>
</svg>
